#!OML:ASF E:\emotionWalksFemale\Project 1\Capture day 1\Session 1\Female1.ASF
:FULLY-SPECIFIED
:DEGREES
389
root 8.6349 15.5515 2.69269 176.646 -1.08956 -182.701
lowerback 7.90684 0.574467 -3.17225
upperback -4.19194 0.243113 -0.847295
thorax -8.90787 0.241424 0.851792
lowerneck -7.1391 -3.69841 -7.89646
upperneck 17.0774 -6.27167 8.43741
head 6.87094 -3.18356 3.48217
rclavicle 2.11209e-016 5.96354e-016
rhumerus -49.2948 6.63105 -86.3505
rradius 31.5424
rwrist 15.0413
rhand 1.1646 -54.3303
rfingers 7.12502
rthumb 26.7054 -82.4659
lclavicle 2.11209e-016 5.96354e-016
lhumerus -32.6628 -4.87752 84.7792
lradius 39.7495
lwrist -9.51025
lhand -8.61174 -34.1544
lfingers 7.12502
lthumb 17.3201 -4.90613
rfemur -24.7863 -1.71182 20.2473
rtibia 55.5059
rfoot -16.0727 -18.7661
rtoes -15.6872
lfemur 4.13547 -19.7485 -35.5477
ltibia 18.0061
lfoot -17.5769 19.0358
ltoes -17.1146
390
root 8.64604 15.5493 2.58429 176.711 -1.24985 -182.645
lowerback 7.13738 0.517156 -3.35792
upperback -3.65733 0.220433 -0.741888
thorax -7.87888 0.233738 1.07804
lowerneck -7.54203 -3.79464 -7.64999
upperneck 16.6577 -6.24334 8.11343
head 6.79021 -3.13954 3.3313
rclavicle 1.07406e-014 -1.20265e-014
rhumerus -48.4323 6.79137 -86.295
rradius 31.5419
rwrist 15.2596
rhand 1.25551 -54.0033
rfingers 7.12502
rthumb 26.7924 -82.1257
lclavicle 1.07406e-014 -1.20265e-014
lhumerus -31.7531 -5.01946 85.1095
lradius 40.5334
lwrist -8.58542
lhand -8.6773 -34.234
lfingers 7.12502
lthumb 17.2571 -4.98023
rfemur -25.1496 -0.906475 20.3396
rtibia 53.4858
rfoot -16.1193 -19.3182
rtoes -16.1642
lfemur 4.53978 -19.7472 -35.5915
ltibia 18.0146
lfoot -17.5977 18.9117
ltoes -17.4398
391
root 8.65704 15.5463 2.47256 176.668 -1.48009 -182.452
lowerback 7.72031 0.474523 -3.32167
upperback -3.87969 0.141437 -0.651819
thorax -8.45616 0.205636 1.16046
lowerneck -7.47992 -3.74852 -7.56528
upperneck 16.7252 -6.18701 7.99972
head 6.78989 -3.12025 3.28639
rclavicle 3.32964e-015 5.11871e-015
rhumerus -48.9243 7.05885 -86.5193
rradius 31.8504
rwrist 15.1114
rhand 1.41216 -54.28
rfingers 7.12502
rthumb 26.9423 -82.3793
lclavicle 3.32964e-015 5.11871e-015
lhumerus -32.0373 -5.4168 85.4978
lradius 41.3026
lwrist -7.75155
lhand -8.70253 -34.1073
lfingers 7.12502
lthumb 17.2328 -4.85144
rfemur -25.2785 -0.188107 20.5619
rtibia 51.3531
rfoot -16.4626 -19.8305
rtoes -16.2018
lfemur 5.10284 -19.704 -35.4975
ltibia 17.992
lfoot -17.9166 18.6886
ltoes -16.3519
392
root 8.66935 15.5442 2.36485 176.627 -1.63435 -182.315
lowerback 7.86024 0.435553 -3.14027
upperback -3.84854 0.103237 -0.701362
thorax -8.50073 0.17654 1.01144
lowerneck -7.43973 -3.72577 -7.62947
upperneck 16.6462 -6.20114 8.29652
head 6.7691 -3.11158 3.39297
rclavicle -3.98812e-015 1.31198e-014
rhumerus -48.8588 7.2123 -86.89
rradius 32.1366
rwrist 14.3513
rhand 1.92286 -55.3958
rfingers 7.12502
rthumb 27.4308 -83.4187
lclavicle -3.98812e-015 1.31198e-014
lhumerus -31.897 -5.9287 85.6874
lradius 41.9659
lwrist -6.94447
lhand -9.29167 -34.2026
lfingers 7.12502
lthumb 16.6657 -4.898
rfemur -25.3965 0.522966 20.7354
rtibia 49.1278
rfoot -16.7567 -20.3103
rtoes -15.7984
lfemur 5.65807 -19.583 -35.4101
ltibia 17.8569
lfoot -18.1868 18.4993
ltoes -15.8887
393
root 8.68275 15.5413 2.25777 176.703 -1.70078 -182.282
lowerback 7.92556 0.419206 -3.19081
upperback -3.87563 0.074195 -0.673869
thorax -8.56765 0.167245 1.07301
lowerneck -7.37725 -3.71389 -7.90016
upperneck 16.5986 -6.20923 8.61177
head 6.7608 -3.11198 3.54127
rclavicle -6.01324e-015 1.78906e-015
rhumerus -48.7431 7.27163 -86.9059
rradius 31.8074
rwrist 14.9711
rhand 1.80116 -54.615
rfingers 7.12502
rthumb 27.3144 -82.6563
lclavicle -6.01324e-015 1.78906e-015
lhumerus -31.9183 -6.23156 86.0133
lradius 42.7638
lwrist -6.24652
lhand -9.99329 -34.2677
lfingers 7.12502
lthumb 15.9901 -4.90768
rfemur -25.6097 1.33886 20.7804
rtibia 46.859
rfoot -16.5536 -20.871
rtoes -15.8432
lfemur 6.13105 -19.3624 -35.3664
ltibia 17.5862
lfoot -18.2614 18.3159
ltoes -16.5991
394
root 8.69642 15.5407 2.15193 176.832 -1.85881 -182.258
lowerback 8.03353 0.416404 -3.24084
upperback -3.98751 0.0538975 -0.666646
thorax -8.75229 0.162435 1.11126
lowerneck -7.23575 -3.76423 -7.92985
upperneck 16.5604 -6.27406 8.55636
head 6.7287 -3.15362 3.52446
rclavicle 1.0051e-014 -1.05356e-014
rhumerus -48.8882 7.30346 -87.0131
rradius 32.1447
rwrist 14.5503
rhand 2.04777 -54.9512
rfingers 7.12502
rthumb 27.5503 -82.9552
lclavicle 1.0051e-014 -1.05356e-014
lhumerus -32.0399 -6.7033 86.3983
lradius 43.4485
lwrist -5.58222
lhand -9.7861 -33.9965
lfingers 7.12502
lthumb 16.1896 -4.65259
rfemur -25.8287 2.21821 20.7419
rtibia 44.5866
rfoot -16.6491 -21.2412
rtoes -15.189
lfemur 6.60286 -19.031 -35.2568
ltibia 17.1905
lfoot -18.2844 17.8574
ltoes -17.5542
395
root 8.70868 15.5373 2.04212 176.876 -2.00406 -182.4
lowerback 8.04582 0.422175 -3.43127
upperback -4.0131 0.0299638 -0.72132
thorax -8.78793 0.159269 1.16395
lowerneck -7.10444 -3.80143 -7.86797
upperneck 16.5445 -6.31877 8.41337
head 6.69828 -3.18618 3.46563
rclavicle 4.53478e-015 -5.46658e-015
rhumerus -48.9998 7.33734 -87.0979
rradius 32.2207
rwrist 14.9011
rhand 1.87126 -54.3062
rfingers 7.12502
rthumb 27.3815 -82.3369
lclavicle 4.53478e-015 -5.46658e-015
lhumerus -32.167 -7.15845 86.7303
lradius 44.0934
lwrist -4.93234
lhand -9.57245 -34.21
lfingers 7.12502
lthumb 16.3953 -4.88297
rfemur -25.9377 3.01439 20.4984
rtibia 42.3463
rfoot -16.9456 -21.3509
rtoes -14.5219
lfemur 7.24737 -18.6523 -35.3499
ltibia 16.6758
lfoot -18.4027 17.1879
ltoes -17.4896
396
root 8.722 15.5289 1.92675 176.869 -2.1541 -182.616
lowerback 7.78026 0.383482 -3.72376
upperback -3.79351 -0.0381446 -0.779858
thorax -8.39239 0.133868 1.27787
lowerneck -7.19832 -3.83169 -7.95688
upperneck 16.4093 -6.32844 8.50016
head 6.67841 -3.18029 3.50628
rclavicle 6.02566e-015 -4.17448e-015
rhumerus -48.5985 7.5347 -87.2384
rradius 32.3607
rwrist 14.5627
rhand 1.86983 -54.593
rfingers 7.12502
rthumb 27.3801 -82.6239
lclavicle 6.02566e-015 -4.17448e-015
lhumerus -32.0339 -7.51047 87.0178
lradius 44.7361
lwrist -4.23817
lhand -9.92572 -34.4634
lfingers 7.12502
lthumb 16.0552 -5.10856
rfemur -25.9233 3.68662 20.1854
rtibia 40.1326
rfoot -16.9052 -21.5892
rtoes -14.3404
lfemur 8.02964 -18.3743 -35.5702
ltibia 16.0624
lfoot -18.594 16.4647
ltoes -15.6363
397
root 8.73677 15.5202 1.81274 176.888 -2.32604 -182.763
lowerback 7.92888 0.364444 -3.91362
upperback -3.8351 -0.102946 -0.844911
thorax -8.52272 0.111868 1.32514
lowerneck -7.24037 -3.83878 -7.98324
upperneck 16.4658 -6.3559 8.58145
head 6.70944 -3.18991 3.53398
rclavicle -4.42296e-015 -1.15295e-014
rhumerus -48.4368 7.45859 -87.2924
rradius 32.2509
rwrist 14.4536
rhand 1.8284 -54.3407
rfingers 7.12502
rthumb 27.3405 -82.3779
lclavicle -4.42296e-015 -1.15295e-014
lhumerus -32.291 -7.96642 87.355
lradius 45.319
lwrist -3.60134
lhand -10.2526 -34.3231
lfingers 7.12502
lthumb 15.7404 -4.94319
rfemur -25.8812 4.43065 19.9202
rtibia 37.9102
rfoot -16.6681 -21.9953
rtoes -14.1713
lfemur 8.75898 -18.1856 -35.7214
ltibia 15.5058
lfoot -18.6603 15.918
ltoes -13.8664
398
root 8.75038 15.5127 1.69981 176.966 -2.46307 -182.867
lowerback 7.94184 0.335381 -4.08742
upperback -3.86497 -0.169049 -0.872242
thorax -8.56045 0.0882509 1.40381
lowerneck -7.36859 -3.7925 -7.88107
upperneck 16.6032 -6.29233 8.48247
head 6.76407 -3.15787 3.48856
rclavicle 4.03781e-015 -4.96962e-015
rhumerus -48.3424 7.44477 -87.3481
rradius 32.3886
rwrist 14.4889
rhand 1.96726 -54.3314
rfingers 7.12502
rthumb 27.4733 -82.3475
lclavicle 4.03781e-015 -4.96962e-015
lhumerus -32.433 -8.25509 87.6568
lradius 45.8109
lwrist -3.11835
lhand -10.3361 -34.4484
lfingers 7.12502
lthumb 15.66 -5.06217
rfemur -25.8804 5.25744 19.6595
rtibia 35.6803
rfoot -16.2788 -22.4978
rtoes -14.7859
lfemur 9.3392 -17.92 -35.7935
ltibia 15.0737
lfoot -18.5764 15.5244
ltoes -13.4552
399
root 8.76484 15.5077 1.58891 177.181 -2.56085 -182.868
lowerback 7.61382 0.273982 -4.16149
upperback -3.83815 -0.244309 -0.880121
thorax -8.33542 0.0499564 1.44826
lowerneck -7.48173 -3.75608 -7.72812
upperneck 16.6946 -6.22752 8.3025
head 6.79762 -3.12677 3.4086
rclavicle 6.53505e-015 -1.68967e-015
rhumerus -48.233 7.63835 -87.5256
rradius 32.4262
rwrist 15.0408
rhand 1.31091 -53.9461
rfingers 7.12502
rthumb 26.8454 -82.0604
lclavicle 6.53505e-015 -1.68967e-015
lhumerus -32.4295 -8.46403 87.876
lradius 46.2463
lwrist -2.69171
lhand -10.3804 -34.7765
lfingers 7.12502
lthumb 15.6173 -5.38694
rfemur -25.9854 6.2683 19.4311
rtibia 33.4654
rfoot -16.0339 -23.1989
rtoes -15.5239
lfemur 9.73446 -17.6009 -35.6813
ltibia 14.6512
lfoot -18.4716 15.1156
ltoes -13.8794
400
root 8.78018 15.5031 1.47768 177.396 -2.67057 -182.944
lowerback 7.70425 0.238481 -4.27186
upperback -4.12295 -0.33701 -0.922575
thorax -8.69388 0.0139518 1.47906
lowerneck -7.23947 -3.69393 -7.67307
upperneck 16.8911 -6.20299 8.23674
head 6.81102 -3.13569 3.38416
rclavicle -1.90088e-015 1.5207e-014
rhumerus -48.4653 7.69102 -87.7141
rradius 32.7636
rwrist 14.2745
rhand 1.27288 -54.3283
rfingers 7.12502
rthumb 26.809 -82.4481
lclavicle -1.90088e-015 1.5207e-014
lhumerus -33.0714 -8.76469 88.1802
lradius 46.7364
lwrist -2.43579
lhand -10.5814 -34.9847
lfingers 7.12502
lthumb 15.4237 -5.58013
rfemur -26.0479 7.54944 19.0168
rtibia 31.3435
rfoot -16.1316 -24.0561
rtoes -15.6117
lfemur 10.1489 -17.3181 -35.6663
ltibia 14.181
lfoot -18.287 14.7513
ltoes -14.1765
